<svg id="Layer_1" data-name="Layer 1" xmlns="http://www.w3.org/2000/svg" xmlns:xlink="http://www.w3.org/1999/xlink" viewBox="0 0 171 60"><defs><style>.cls-1{fill:none;}.cls-2{fill:#231f20;}.cls-3{fill:#f58a1f;}.cls-4{fill:url(#New_Gradient_Swatch_56);}.cls-5{fill:url(#linear-gradient);}.cls-6{fill:url(#linear-gradient-2);}.cls-7{fill:#f9a719;}.cls-8{font-size:13.43px;font-family:A760RomanSmc, A760-Roman-Smc;}.cls-9{letter-spacing:-0.02em;}.cls-10{letter-spacing:0em;}.cls-11{letter-spacing:-0.04em;}.cls-12{letter-spacing:0em;}.cls-13{clip-path:url(#clip-path);}.cls-14{fill:#251716;}</style><linearGradient id="New_Gradient_Swatch_56" x1="161.66" y1="0.38" x2="168.52" y2="0.38" gradientTransform="translate(-24 24)" gradientUnits="userSpaceOnUse"><stop offset="0" stop-color="#235288"/><stop offset="0.19" stop-color="#316195"/><stop offset="0.51" stop-color="#5183b3"/><stop offset="1" stop-color="#a8d0df"/></linearGradient><linearGradient id="linear-gradient" x1="153.69" y1="1.69" x2="162.03" y2="1.69" gradientTransform="translate(-24 24)" gradientUnits="userSpaceOnUse"><stop offset="0" stop-color="#c0dae7"/><stop offset="0.53" stop-color="#078ec6"/><stop offset="0.76" stop-color="#057cb7"/><stop offset="1" stop-color="#036dab"/></linearGradient><linearGradient id="linear-gradient-2" x1="149.36" y1="-4.07" x2="162.68" y2="-4.07" gradientTransform="translate(-24 24)" gradientUnits="userSpaceOnUse"><stop offset="0" stop-color="#f37721"/><stop offset="1" stop-color="#fac614"/></linearGradient><clipPath id="clip-path"><rect class="cls-1" x="32.34" y="-11.65" width="49.41" height="49.41"/></clipPath></defs><title>cdip almuni 2 png@4x-100</title><g id="_Group_" data-name="&lt;Group&gt;"><path id="_Compound_Path_" data-name="&lt;Compound Path&gt;" class="cls-2" d="M54,44a2.2,2.2,0,0,1-.68.1,1.13,1.13,0,0,1-1.28-1.27q0-1.21,1.28-1.21a2.2,2.2,0,0,1,.68.1V42a1.82,1.82,0,0,0-.65-.12q-1,0-1,.95a.89.89,0,0,0,1,1,1.82,1.82,0,0,0,.65-.12Z"/><path id="_Compound_Path_2" data-name="&lt;Compound Path&gt;" class="cls-2" d="M55.26,42.28A.67.67,0,0,1,56,43a1.88,1.88,0,0,1,0,.23H54.75q0,.55.64.55a2,2,0,0,0,.54-.07V44a2.11,2.11,0,0,1-.58.07.81.81,0,0,1-.93-.92Q54.44,42.28,55.26,42.28Zm-.51.73h1q0-.47-.46-.47A.45.45,0,0,0,54.75,43Z"/><path id="_Compound_Path_3" data-name="&lt;Compound Path&gt;" class="cls-2" d="M56.46,44.08v-1.8h.21l.06.23a.92.92,0,0,1,.61-.23A.59.59,0,0,1,58,43v1.13h-.32V42.95a.35.35,0,0,0-.4-.4.75.75,0,0,0-.52.23v1.31Z"/><path id="_Compound_Path_4" data-name="&lt;Compound Path&gt;" class="cls-2" d="M58.52,42h.2l.07.29h.49v.26h-.44v1q0,.25.22.25h.22v.26H59q-.45,0-.45-.48Z"/><path id="_Compound_Path_5" data-name="&lt;Compound Path&gt;" class="cls-2" d="M60.41,42.28a.67.67,0,0,1,.77.76,1.88,1.88,0,0,1,0,.23H59.9q0,.55.64.55a2,2,0,0,0,.54-.07V44a2.1,2.1,0,0,1-.58.07.81.81,0,0,1-.93-.92Q59.59,42.28,60.41,42.28ZM59.9,43h1q0-.47-.46-.47A.45.45,0,0,0,59.9,43Z"/><path id="_Compound_Path_6" data-name="&lt;Compound Path&gt;" class="cls-2" d="M61.61,44.08v-1.8h.21l.06.23a.78.78,0,0,1,.57-.23v.26a.66.66,0,0,0-.52.23v1.31Z"/><path id="_Compound_Path_7" data-name="&lt;Compound Path&gt;" class="cls-2" d="M63.62,44.08V42.2q0-.65.74-.65a1.06,1.06,0,0,1,.38.07v.26a1,1,0,0,0-.39-.07q-.42,0-.42.38v.1h.56v.26h-.56v1.54Z"/><path id="_Compound_Path_8" data-name="&lt;Compound Path&gt;" class="cls-2" d="M64.66,43.18q0-.9.86-.9t.86.9q0,.9-.86.9T64.66,43.18Zm.86.64q.54,0,.54-.65t-.54-.63q-.54,0-.54.63T65.52,43.82Z"/><path id="_Compound_Path_9" data-name="&lt;Compound Path&gt;" class="cls-2" d="M66.8,44.08v-1.8H67l.06.23a.78.78,0,0,1,.57-.23v.26a.66.66,0,0,0-.52.23v1.31Z"/><path id="_Compound_Path_10" data-name="&lt;Compound Path&gt;" class="cls-2" d="M68.84,44.08V41.63h.89q1.21,0,1.21,1.16t-1.21,1.29Zm.89-.26q.9,0,.9-1a.79.79,0,0,0-.9-.9h-.57v1.93Z"/><path id="_Compound_Path_11" data-name="&lt;Compound Path&gt;" class="cls-2" d="M72.12,42.28a.67.67,0,0,1,.77.76,1.88,1.88,0,0,1,0,.23H71.61q0,.55.64.55a2,2,0,0,0,.54-.07V44a2.1,2.1,0,0,1-.58.07.81.81,0,0,1-.93-.92Q71.29,42.28,72.12,42.28Zm-.51.73h1q0-.47-.46-.47A.45.45,0,0,0,71.61,43Z"/><path id="_Compound_Path_12" data-name="&lt;Compound Path&gt;" class="cls-2" d="M73.05,42.28h.34l.51,1.41.51-1.41h.34L74,44.08h-.29Z"/><path id="_Compound_Path_13" data-name="&lt;Compound Path&gt;" class="cls-2" d="M75.76,42.28a.67.67,0,0,1,.77.76,1.88,1.88,0,0,1,0,.23H75.25q0,.55.64.55a2,2,0,0,0,.54-.07V44a2.1,2.1,0,0,1-.58.07.81.81,0,0,1-.93-.92Q74.93,42.28,75.76,42.28Zm-.51.73h1q0-.47-.46-.47A.45.45,0,0,0,75.25,43Z"/><path id="_Compound_Path_14" data-name="&lt;Compound Path&gt;" class="cls-2" d="M77.29,41.63v2.45H77V41.63Z"/><path id="_Compound_Path_15" data-name="&lt;Compound Path&gt;" class="cls-2" d="M77.73,43.18q0-.9.86-.9t.86.9q0,.9-.86.9T77.73,43.18Zm.86.64q.54,0,.54-.65t-.54-.63q-.54,0-.54.63T78.59,43.82Z"/><path id="_Compound_Path_16" data-name="&lt;Compound Path&gt;" class="cls-2" d="M79.87,42.36a3.63,3.63,0,0,1,.74-.07.76.76,0,0,1,.86.85q0,.94-.87.94a1.06,1.06,0,0,1-.42-.09v.74h-.32Zm.32,1.36a.92.92,0,0,0,.42.09q.56,0,.56-.67t-.56-.59a1.88,1.88,0,0,0-.42,0Z"/><path id="_Compound_Path_17" data-name="&lt;Compound Path&gt;" class="cls-2" d="M81.9,44.08v-1.8h.21l.05.23a.84.84,0,0,1,.56-.23.56.56,0,0,1,.53.25.92.92,0,0,1,.59-.25q.62,0,.62.68v1.11h-.32V42.95q0-.4-.34-.4a.65.65,0,0,0-.47.23v1.3H83V43q0-.41-.34-.41a.63.63,0,0,0-.48.23v1.3Z"/><path id="_Compound_Path_18" data-name="&lt;Compound Path&gt;" class="cls-2" d="M85.73,42.28a.67.67,0,0,1,.77.76,1.87,1.87,0,0,1,0,.23H85.22q0,.55.64.55a2,2,0,0,0,.54-.07V44a2.11,2.11,0,0,1-.58.07.81.81,0,0,1-.93-.92Q84.9,42.28,85.73,42.28Zm-.51.73h1q0-.47-.46-.47A.45.45,0,0,0,85.22,43Z"/><path id="_Compound_Path_19" data-name="&lt;Compound Path&gt;" class="cls-2" d="M86.92,44.08v-1.8h.21l.06.23a.92.92,0,0,1,.61-.23.59.59,0,0,1,.67.67v1.13h-.32V42.95a.35.35,0,0,0-.4-.4.75.75,0,0,0-.52.23v1.31Z"/><path id="_Compound_Path_20" data-name="&lt;Compound Path&gt;" class="cls-2" d="M89,42h.2l.07.29h.49v.26H89.3v1q0,.25.22.25h.22v.26h-.3q-.45,0-.45-.48Z"/><path id="_Compound_Path_21" data-name="&lt;Compound Path&gt;" class="cls-2" d="M90.91,43.18q0-.9.86-.9t.86.9q0,.9-.86.9T90.91,43.18Zm.86.64q.54,0,.54-.65t-.54-.63q-.54,0-.54.63T91.76,43.82Z"/><path id="_Compound_Path_22" data-name="&lt;Compound Path&gt;" class="cls-2" d="M93,44.08V42.2q0-.65.74-.65a1.06,1.06,0,0,1,.38.07v.26a1,1,0,0,0-.38-.07q-.42,0-.42.38v.1h.56v.26h-.56v1.54Z"/><path id="_Compound_Path_23" data-name="&lt;Compound Path&gt;" class="cls-2" d="M95.43,41.63v2.45h-.32V41.63Z"/><path id="_Compound_Path_24" data-name="&lt;Compound Path&gt;" class="cls-2" d="M97.72,41.63v.26h-.77v2.19h-.32V41.89h-.77v-.26Z"/><path id="_Compound_Path_25" data-name="&lt;Compound Path&gt;" class="cls-2" d="M98.95,44.08V41.63h1q.75,0,.75.66t-1,.87l-.06-.27q.75-.11.75-.59t-.44-.41h-.65v2.18Z"/><path id="_Compound_Path_26" data-name="&lt;Compound Path&gt;" class="cls-2" d="M101.08,44.08v-1.8h.21l.06.23a.78.78,0,0,1,.57-.23v.26a.66.66,0,0,0-.52.23v1.31Z"/><path id="_Compound_Path_27" data-name="&lt;Compound Path&gt;" class="cls-2" d="M102.15,43.18q0-.9.86-.9t.86.9q0,.9-.86.9T102.15,43.18Zm.86.64q.54,0,.54-.65t-.54-.63q-.54,0-.54.63T103,43.82Z"/><path id="_Compound_Path_28" data-name="&lt;Compound Path&gt;" class="cls-2" d="M104.28,44.08V42.2q0-.65.74-.65a1.06,1.06,0,0,1,.38.07v.26a1,1,0,0,0-.38-.07q-.42,0-.42.38v.1h.56v.26h-.56v1.54Z"/><path id="_Compound_Path_29" data-name="&lt;Compound Path&gt;" class="cls-2" d="M106.16,42.28a.67.67,0,0,1,.77.76,1.88,1.88,0,0,1,0,.23h-1.26q0,.55.64.55a2,2,0,0,0,.54-.07V44a2.1,2.1,0,0,1-.58.07.82.82,0,0,1-.93-.92Q105.33,42.28,106.16,42.28Zm-.51.73h1q0-.47-.46-.47A.45.45,0,0,0,105.65,43Z"/><path id="_Compound_Path_30" data-name="&lt;Compound Path&gt;" class="cls-2" d="M107.33,44v-.27a2.06,2.06,0,0,0,.64.1q.43,0,.43-.26t-.3-.24h-.26q-.58,0-.58-.53t.75-.51a2.42,2.42,0,0,1,.64.09v.27a2.06,2.06,0,0,0-.64-.1q-.45,0-.45.26t.28.24h.26q.62,0,.62.53t-.75.51A2.44,2.44,0,0,1,107.33,44Z"/><path id="_Compound_Path_31" data-name="&lt;Compound Path&gt;" class="cls-2" d="M109.13,44v-.27a2.06,2.06,0,0,0,.64.1q.43,0,.43-.26t-.3-.24h-.26q-.58,0-.58-.53t.75-.51a2.42,2.42,0,0,1,.64.09v.27a2.05,2.05,0,0,0-.64-.1q-.45,0-.45.26t.28.24h.26q.62,0,.62.53t-.75.51A2.44,2.44,0,0,1,109.13,44Z"/><path id="_Compound_Path_32" data-name="&lt;Compound Path&gt;" class="cls-2" d="M111.29,41.63v.3H111v-.3Zm0,.65v1.8H111v-1.8Z"/><path id="_Compound_Path_33" data-name="&lt;Compound Path&gt;" class="cls-2" d="M111.75,43.18q0-.9.86-.9t.86.9q0,.9-.86.9T111.75,43.18Zm.86.64q.54,0,.54-.65t-.54-.63q-.54,0-.54.63T112.61,43.82Z"/><path id="_Compound_Path_34" data-name="&lt;Compound Path&gt;" class="cls-2" d="M113.89,44.08v-1.8h.21l.06.23a.93.93,0,0,1,.61-.23.59.59,0,0,1,.67.67v1.13h-.32V42.95a.35.35,0,0,0-.4-.4.75.75,0,0,0-.52.23v1.31Z"/><path id="_Compound_Path_35" data-name="&lt;Compound Path&gt;" class="cls-2" d="M115.87,43.54q0-.55.73-.55a3.26,3.26,0,0,1,.47,0v-.17q0-.31-.48-.31a2,2,0,0,0-.57.09v-.26a2,2,0,0,1,.57-.09q.8,0,.8.56v1.24h-.18l-.11-.18a1,1,0,0,1-.59.18Q115.87,44.08,115.87,43.54Zm.73-.3q-.41,0-.41.29t.32.29a.89.89,0,0,0,.56-.17v-.37A3.19,3.19,0,0,0,116.6,43.24Z"/><path id="_Compound_Path_36" data-name="&lt;Compound Path&gt;" class="cls-2" d="M118.23,41.63v2.45h-.32V41.63Z"/><path id="_Compound_Path_37" data-name="&lt;Compound Path&gt;" class="cls-2" d="M118.74,44v-.27a2.06,2.06,0,0,0,.64.1q.43,0,.43-.26t-.3-.24h-.26q-.58,0-.58-.53t.75-.51a2.42,2.42,0,0,1,.64.09v.27a2.06,2.06,0,0,0-.64-.1q-.45,0-.45.26t.28.24h.26q.62,0,.62.53t-.75.51A2.44,2.44,0,0,1,118.74,44Z"/></g><g id="_Group_2" data-name="&lt;Group&gt;"><path id="_Compound_Path_38" data-name="&lt;Compound Path&gt;" class="cls-3" d="M98.86,36.08H92.54a7,7,0,0,1-2.82-.53,6,6,0,0,1-2-1.44A6,6,0,0,1,86.13,30a5.9,5.9,0,0,1,.52-2.46,6.09,6.09,0,0,1,1.43-2A5.78,5.78,0,0,1,90,24.43,7.16,7.16,0,0,1,92.54,24h6.32v3.2H92.54a3.69,3.69,0,0,0-1.36.21,3.05,3.05,0,0,0-.93.57,2.94,2.94,0,0,0-.65.93,2.75,2.75,0,0,0-.24,1.14,2.78,2.78,0,0,0,.2,1,2.69,2.69,0,0,0,.55.87,2.78,2.78,0,0,0,1,.68,3.7,3.7,0,0,0,1.45.25h6.32Z"/><path id="_Compound_Path_39" data-name="&lt;Compound Path&gt;" class="cls-3" d="M107.69,24a7.17,7.17,0,0,1,2.56.42,5.78,5.78,0,0,1,1.9,1.17,6.09,6.09,0,0,1,1.43,2A5.9,5.9,0,0,1,114.1,30a5.9,5.9,0,0,1-3.59,5.51,7,7,0,0,1-2.82.53h-6.52a.69.69,0,0,1-.79-.77V24.76q0-.75.79-.75Zm-3.84,3.2q-.23,0-.23.25v5.2q0,.25.23.25h3.84a3.7,3.7,0,0,0,1.45-.25,2.78,2.78,0,0,0,1-.68,2.69,2.69,0,0,0,.55-.87,2.79,2.79,0,0,0,.2-1,2.76,2.76,0,0,0-.24-1.14A2.94,2.94,0,0,0,110,28a3.05,3.05,0,0,0-.93-.57,3.69,3.69,0,0,0-1.36-.21Z"/><path id="_Compound_Path_40" data-name="&lt;Compound Path&gt;" class="cls-3" d="M118.92,24V36.08h-3.25V24Z"/><path id="_Compound_Path_41" data-name="&lt;Compound Path&gt;" class="cls-3" d="M129.51,24a5.8,5.8,0,0,1,2.15.35,4.36,4.36,0,0,1,1.47,1,4.6,4.6,0,0,1,1,1.46,4.46,4.46,0,0,1,.08,3.3,4.69,4.69,0,0,1-.78,1.35,4.43,4.43,0,0,1-1.57,1.19,5.56,5.56,0,0,1-2.34.44H124v3h-3.23V24.76q0-.75.79-.75Zm.07,6.07a2.1,2.1,0,0,0,.87-.15,1.33,1.33,0,0,0,.53-.42,1.38,1.38,0,0,0,.29-.86,1.45,1.45,0,0,0-.3-.91,1.32,1.32,0,0,0-.53-.39,2.15,2.15,0,0,0-.85-.14h-5.39q-.23,0-.23.25v2.63Z"/></g><g id="_Group_3" data-name="&lt;Group&gt;"><path id="_Path_" data-name="&lt;Path&gt;" class="cls-4" d="M137.76,16.78A7.73,7.73,0,0,1,144.48,25c-.38,3.82-3.71,7.21-6.83,6.93C145.15,28.68,144.82,20,137.76,16.78Z"/><path id="_Path_2" data-name="&lt;Path&gt;" class="cls-5" d="M129.69,21.17a5.84,5.84,0,0,1,7.66,2.42c1.34,2.57.63,6.09-1.45,7.21C139.29,25.63,135.5,20.3,129.69,21.17Z"/><path id="_Path_3" data-name="&lt;Path&gt;" class="cls-6" d="M138.68,22.85c-1.18-3.05-3.22-5-6.61-5-3.55,0-5.48,2.26-6.66,5.59a6.47,6.47,0,0,1,5.83-7A6.6,6.6,0,0,1,138.68,22.85Z"/></g><path class="cls-7" d="M19,39.52l4.13,0,4.13,0,8.25-.06L52,39.33l16.5,0h33l16.5,0,16.5.07,8.25.06,4.13,0,4.13,0-4.13,0-4.13,0-8.25.06-16.5.07-16.5,0h-33l-16.5,0-16.5-.07-8.25-.06-4.13,0Z"/><text class="cls-8" transform="translate(22.24 56.63)">Alumni <tspan class="cls-9" x="50.57" y="0">A</tspan><tspan class="cls-10" x="60.29" y="0">ssoci</tspan><tspan class="cls-11" x="91.24" y="0">a</tspan><tspan class="cls-12" x="98.1" y="0">tion</tspan></text><g class="cls-13"><path class="cls-14" d="M74.12,10.69c.18.06.2-.42.26-.81.87.89,1.79,1.76,1.79,1.76a18.45,18.45,0,0,1-.94-3.79c-.31-.17-3-3.52-2.75-3.14a8.79,8.79,0,0,1,.32,2.18h0a6.35,6.35,0,0,1-.87.09c-.37,0-.14,1.59.3,2.28A5.14,5.14,0,0,0,74.12,10.69Z"/><path class="cls-14" d="M42.39,8.74a2.62,2.62,0,0,0,1.13.36,1,1,0,0,0,1.2-.53,8.59,8.59,0,0,0,1.43-.17c0-.1-.7-3.71-.79-3.79A37.91,37.91,0,0,0,41,5.05c0,.07.76,3.73.76,3.73Z"/><path class="cls-14" d="M34,34.82c-.07.78-.46.69-.55,1-.23.84.13,1.09-.72,2.29s-2.12,4.33-2.51,5H82.78c0-1.86-.34-6.91-2.07-7.36-.67-.17-1.26-1.9-1.64-2.17a41.42,41.42,0,0,1,.28-5.51,19.56,19.56,0,0,1,1.21-1.94.44.44,0,0,0,0-.24v-.09l0,0h0l0,0h0l0,0h0l-.07,0H80l-.12,0h0l-.1,0h0l-.16,0h0a2.7,2.7,0,0,1-.65.09h-.09c.26-.71,1-2.63,1.06-2.84s.3-.62.47-.64a1.3,1.3,0,0,0,.39-.16,3.4,3.4,0,0,0,.31.48c.2.14.84-.19.68-.41s-.28-.41-.58-.87a.9.9,0,0,0,.06-.15.36.36,0,0,0-.09-.32c0-.28-.14-.26-.14-.26a.17.17,0,0,0-.23-.19c0-.1.06-.22-.08-.35s-.31,0-.31,0h0c0-.07,0-.13-.09-.13l-.36-.55a.12.12,0,0,0,0-.08.84.84,0,0,0-.1-.19.19.19,0,0,0-.16-.09L78.1,16.76c-.42-.16-.73.34-.73.34l1.17,1.83a.94.94,0,0,0-.61-.06c-.6.16-.67.4-1.19.4a.7.7,0,0,0,.09.22s.22.06.67-.22a1.14,1.14,0,0,1,1.19-.12l.09.15a.86.86,0,0,0-.77.1c-.48.31-.81,1.13-1.32,1.29,0,0,.2.17.35.11s.21-.09.49-.59.59-.92,1.1-.85l.21,0,.08.12h0s0,0,0,0a1.53,1.53,0,0,0,.18.29l.09,0,.52.81a1.32,1.32,0,0,0-.21.26,3.62,3.62,0,0,0-.1,1.18,6.1,6.1,0,0,1-.88,1.65c-.43.71-.93,1.59-1.22,2.1a2.53,2.53,0,0,0-1,.08h0l0,0,0,0h0l0,0a5.83,5.83,0,0,0-1,2.23c-.16-.29-.39-.2-.48-.44s-.09-.88-.39-1.15a4.93,4.93,0,0,0-.57-.31A1.75,1.75,0,0,0,72.39,26a1.42,1.42,0,0,0-1.11,1,4.45,4.45,0,0,0,.07,2.21,2.45,2.45,0,0,1,.23.86A19,19,0,0,0,69.82,29c-.32-.25-.34-.42-.48-.57s-.8-.56-.88-.68a3.44,3.44,0,0,1-.14-.87c0-.2.14-.56.13-.67s-.62-.39-.62-.39.3-2.82.32-3.1.25-.5.3-.65a2.21,2.21,0,0,0,0-.55s.13,0,.19-.06.19.11.28.14.16,0,.17,0-.19-.24-.19-.24.21,0,.2-.07-.18-.2-.18-.2.18,0,.18,0a4.24,4.24,0,0,0-.38-.4c-.1-.08-.38,0-.46-.11s.07-.19.12-.26a.81.81,0,0,1,.35-.11s2.36,3,2.38,3a11.67,11.67,0,0,0,.82-1.39s.46.57.53.21.81-2.6.81-2.64a1.23,1.23,0,0,0-.16-.24s.08-.06.1-.43-.64-2-1.09-2.08a1,1,0,0,0-.84.32c-.05-.08-1.21-1.43-1.28-1.52s0,0,0,0h0v0c0,.09-.36.85-.75,1.68l-.05,0a.51.51,0,0,0-.49-.24c-.31,0-.49.24-.87.31a2.08,2.08,0,0,1-.93,0,1,1,0,0,0,.63.1,1.39,1.39,0,0,1-.92.31.82.82,0,0,0,.66,0s-.12.14-.17.14a.88.88,0,0,0,.38-.15,1.19,1.19,0,0,1-.74.46s.31.11.46,0a1.35,1.35,0,0,1-.17.17.72.72,0,0,0,.21-.16.89.89,0,0,1-.65.38,1.26,1.26,0,0,0,.63-.19,1.2,1.2,0,0,1-.26.24,1.18,1.18,0,0,0,.62-.35,1.07,1.07,0,0,1,.78-.49,1.62,1.62,0,0,0,.63-.11l-.85,1.78.4.51L68.1,20c-.09,0-.18.18-.34.38s-.47.44-.58.58a.3.3,0,0,0,0,.32c0,.14.09.28.15.51a3.06,3.06,0,0,1,0,1.36c-.14.33-.76,2.78-.76,2.78-.27.11-.52.69-.85,1.06a5.11,5.11,0,0,0-.66,1.1l-.58-.35a.94.94,0,0,0-.19-1,2.5,2.5,0,0,0-1.34-.54c-.43-.07-.3-.11-.74-.19a2.31,2.31,0,0,0-1.28.17,3.29,3.29,0,0,0-.3,1c-.13,0-1.21-.06-1.9-.07a3.06,3.06,0,0,0,.41-1.31v-.32l0-.17v-.1l0-.28c0-.19,0-.38.07-.56l0-.35,0-.11h0l0-.19v0l0-.14h0V23.6h0v0h0v0a.27.27,0,0,1,.09-.16l.07-.06.09-.08a.62.62,0,0,0,.09-.12c.06-.1.13-.24.2-.36l.11-.18.06-.08.12-.13.17-.15.08-.08.05-.06.09-.12,0,0s0,0-.06,0-.38.25-.46.33l0,0-.09,0h0c-.06,0-.11,0-.12-.15a.39.39,0,0,1,0-.14.93.93,0,0,1,.12-.23l.06-.1a1.78,1.78,0,0,0,.13-.36.22.22,0,0,0,0-.11l0,0a.07.07,0,0,0-.07,0c-.08,0-.16.16-.22.27l0,0,0,.06,0,0,0,.07,0,.05,0,.07,0,0,0,.06c-.05.09-.11.16-.15.15s-.07,0-.09-.08a.5.5,0,0,1,0-.08h0s0-.09,0-.14a3,3,0,0,1,.05-.43.84.84,0,0,0,0-.13.3.3,0,0,0,0-.1.1.1,0,0,0,0-.05h-.11a.2.2,0,0,0,0,.08l0,.11,0,.11,0,.13c0,.09,0,.17,0,.24s0,.09,0,.11a.31.31,0,0,1,0,.08l0,0a.18.18,0,0,1-.07.08h0a.38.38,0,0,1-.07-.11,1.9,1.9,0,0,1-.1-.35.86.86,0,0,0-.12-.35h0a.06.06,0,0,0-.06,0h0a.42.42,0,0,0,0,.31s0,.09,0,.13a2.13,2.13,0,0,1,0,.43V22s0,.06,0,.09a.47.47,0,0,1,0,.14.24.24,0,0,1-.05.07.09.09,0,0,1-.06,0h0a.36.36,0,0,1-.12-.12.64.64,0,0,0-.48-.31c-.14,0-.3.06-.22.12l0,0a.73.73,0,0,1,.3.25l.06.09a1.62,1.62,0,0,1,.15.31,1.85,1.85,0,0,0,.11.26l0,.06a.44.44,0,0,0,.14.14l.05,0a.23.23,0,0,1,0,.16h0s0,.1,0,.18v.12l0,.17c-.09.34-.26.84-.43,1.33l0,.11c-.17.48-.33.93-.41,1.19l0,.11v0l0,.08v0l0,.08v0l0,.11h0v.73h0c0,.07,0,.12,0,.12s-.22-.07-.22.13a4,4,0,0,1-.44.91h0a1,1,0,0,0-.37-.07c-.19-.56-.4-1.12-.61-1.57-.49-1.07-.38-1.6-.22-1.81l.08-.1,0,0v0l0,0v0a0,0,0,0,0,0,0h-.19l-.1,0-.45.12-.65.17h-.07c0-.34,0-1.81,0-2.56s0-1,.09-1.14a3.87,3.87,0,0,0,.49-.55,4.51,4.51,0,0,0,.44-.66,1.83,1.83,0,0,0-.05-.64h0l.54-.74h0s.06,0,.07,0a.93.93,0,0,0,.12-.17.11.11,0,0,0,0-.06h0l.06-.08a1.45,1.45,0,0,1,.4,0c.42.06.63.3,1.16.13,0,0-.17,0-.18-.12a1.17,1.17,0,0,1-.68-.07,1.37,1.37,0,0,0-.6-.09c.62-.86,1.35-1.87,1.41-2s-.31-.48-.47-.37-1.06,1.32-1.73,2.2H55l-.13.19h0c-.16.05-.34.17-.6.26a1.69,1.69,0,0,1-.82.11c0,.05-.09.17-.09.17A2.26,2.26,0,0,0,54.72,19l.09,0-.36.47c-.23-.12-.4.21-.4.21-.21,0-.29.32-.29.32h-.13l0,0a.44.44,0,0,0-.11.21.22.22,0,0,0-.16,0,.28.28,0,0,0-.08.08v0h0l0,0h0l0,.06h0a5.71,5.71,0,0,0-.1.62c0,.22.11.28.1.66A19.65,19.65,0,0,1,53,23.82c-.12.67-.19,1.22-.23,1.57a3.25,3.25,0,0,0-.42.1l-.18.06L51,21.14a.63.63,0,0,0,.11-.32c0-.21-.29-.51-.45-.68a1.48,1.48,0,0,1-.32-.57c0-.17-.14-.26-.18-.21a3.08,3.08,0,0,0,0,.53c0,.12-.13.12-.23,0a1.36,1.36,0,0,1-.19-.52.27.27,0,0,0-.16-.21.14.14,0,0,0-.19-.08c0-.11-.09-.22-.16-.19s-.08.25-.08.25A.19.19,0,0,0,49,19c-.09,0-.15.56-.13.72a3.31,3.31,0,0,0,.48,1c.21.28.58.44.69.74s.35,3.14.35,3.14-.12.1-.12.42-.29.5-.51.6-.63.49-.59.73A1.35,1.35,0,0,1,47.44,28a1.77,1.77,0,0,1,0-.43,2.82,2.82,0,0,1,.36-.59.66.66,0,0,0,.25-.56c0-.18-.19-.24-.33-.29s-.16-.1-.26-.22-.15,0-.18-.11-.13-.06-.19-.12.1-.24,0-.32-.56-.06-.67-.13a1.54,1.54,0,0,1-.25-.22,1.67,1.67,0,0,0-.59-.21c-.21-.43-1.18,0-1.7.11s-.55,1-1,1.13-.13,1-.47,1.36a2.79,2.79,0,0,0-.65,1.25c-.13.46.05.56-.45,1.19l-.06.1h0a1.41,1.41,0,0,0,0-.46c-.06-.12-.36-.25-.36-.25s0-.4,0-.54.18-.25.31-.42a1.79,1.79,0,0,0,.43-.61,3.64,3.64,0,0,0,.11-.92c0-.3-.18-.43-.2-.54s0-.41,0-.41a.85.85,0,0,0-.09-.53,2.09,2.09,0,0,0-2.24-1.13,1.8,1.8,0,0,0-1.2.81c-.55.9-.34,2.66-.53,2.33a6.54,6.54,0,0,1-.56-1.87c0-.32.36-.37.24-.69a3.58,3.58,0,0,1-.38-1.16c0-.56.17-.59.19-.72s-.4-.57-.4-.57.39-.54.7-1.11.1-.87.18-1.06.64-1,.76-1.23a.5.5,0,0,0,0-.41l.51-.74c.19-.27.3-.47.49-.5a.38.38,0,0,0,.27-.22c.22.12.27-.18.27-.18s.2,0,.24,0c.73.15,1.43.29,2.06.41a2.48,2.48,0,0,0,1.51,1A2,2,0,0,0,45.7,16.6,2.43,2.43,0,0,0,45,14.23l.05-.1.23.11a5,5,0,0,1,1.13.7c-.06.35.61,1,.81,1.32a2,2,0,0,1,.37.87c0,.34-.09.45-.09.45.16,0,.21-.5.21-.5s.35.54.35.54a3.47,3.47,0,0,0-.31-.79c.07.09.25.41.25.41a4.1,4.1,0,0,0-.14-.42,2.05,2.05,0,0,0,.66.66,2.92,2.92,0,0,1-.56-.8,2.27,2.27,0,0,1,.45.5,1.18,1.18,0,0,0-.08-.24,2.36,2.36,0,0,1,.48.5c0-.12-.49-.67-.49-.67a3.51,3.51,0,0,1,.43.26,1.87,1.87,0,0,0-.52-.49c.54.3.65.27.65.27a1.2,1.2,0,0,1-.75-.59A11.3,11.3,0,0,0,47,15a.47.47,0,0,0-.52-.2,2.71,2.71,0,0,1-.31-.18L45.12,14,46,12.36c-.45,0-3.92-.81-4-.56s-1,1.75-1.81,3.06h0l-.05,0a2,2,0,0,0-.43,0,.71.71,0,0,0-.35.2,4.51,4.51,0,0,0-.6-.1c-.11,0-.2.16-.2.16-.18,0-.21.24-.21.24a.41.41,0,0,0-.22.14c-.07.11-.1.51-.17.67a2.19,2.19,0,0,1-.22.77c-.2.28-.72.89-.72.89s-.27.12-.39.38-.84.79-1,1a2,2,0,0,0-.22.54c-.11-.22-.62,0-1,.3a6.79,6.79,0,0,0-1.78,2.75,6.13,6.13,0,0,0,.22,2.73c.28.66,1.52,2.59,1.29,3.2s.27,1.2.33,1.42a4.64,4.64,0,0,1-.33,1.75A14.39,14.39,0,0,0,34,34.82ZM61,30.7c0-.09.19-.12.24-.23s.06-.35.13-.39.29-.13.32-.25a.12.12,0,0,0-.09-.15,1.83,1.83,0,0,0,.48-.09c.06-.06.09-.17,0-.19s.3-.06.31-.12,0-.17-.17-.17c0,0,.11-.07.12-.16h.41a3.41,3.41,0,0,0-.36.84c-.06.32-.06,1.9-.36,2.16s-.51,0-.65.27,0,.27,0,.27-.28,0-.3,0S60.94,30.79,61,30.7Zm-2.36-3.2c.83.39,2.37,1.12,2.34,1.13s-.43.05-.55.1-.08.39-.14.43-.08.17-.05.28a6.4,6.4,0,0,1,0,.87s0,.07,0,.12l0,0h0L60,30.2l0,0,0,0L59.88,30a11,11,0,0,0-1.14-1.33A5.67,5.67,0,0,1,58.59,27.5Zm-7.07,5.25a3.81,3.81,0,0,1,.21,1.46c0,.64.59.92.69,1.33a3,3,0,0,1-.32,1.6,7.53,7.53,0,0,0-.39,1.37,9.88,9.88,0,0,1-.64-2.56c0-.56-.25-1.61-.3-1.92A2.82,2.82,0,0,1,51.53,32.75Z"/><path class="cls-14" d="M71.2,26v0A.07.07,0,0,0,71.2,26Z"/><path class="cls-14" d="M70.14,25.93v0Z"/><path class="cls-14" d="M64.7,15.72a8.16,8.16,0,0,1,.87-1.19,1.35,1.35,0,0,0,1.38,0,1.52,1.52,0,0,0,.85-1.71,1,1,0,0,0-.37-.5l.33-.38a26.13,26.13,0,0,1-2.15-2,38.93,38.93,0,0,1-2.72,3.37C63,13.36,64.7,15.72,64.7,15.72Z"/><path class="cls-14" d="M57.86,8.77c.57-.64,1.14-1.26,1.61-1.82a2.1,2.1,0,0,0,1.4-.69,1.68,1.68,0,0,0-.23-2.19,2.08,2.08,0,0,0-2-.52l-.06-.09.15-.1a4.2,4.2,0,0,1,1-.53c.23.19,1,0,1.31,0a1.7,1.7,0,0,1,.79.1c.27.11.29.26.29.26s-.27-.37-.27-.37c.15,0,.54,0,.54,0a2.93,2.93,0,0,0-.71-.11c.1,0,.41,0,.41,0a3.46,3.46,0,0,0-.37-.07,1.73,1.73,0,0,0,.76-.2,2.47,2.47,0,0,1-.82.07,1.91,1.91,0,0,1,.56-.12,1,1,0,0,0-.21,0,2,2,0,0,1,.57-.14,2.4,2.4,0,0,0-.69.07,3,3,0,0,1,.37-.2,1.58,1.58,0,0,0-.58.17c.45-.27.47-.36.47-.36a1,1,0,0,1-.75.3,9.53,9.53,0,0,0-1.36.32.4.4,0,0,0-.37.29,2.29,2.29,0,0,1-.26.15l-.84.52L57.7,2c-.21.32-2.25,2.52-2.09,2.67S57.86,8.77,57.86,8.77Z"/><path class="cls-14" d="M51.94,15.18c.17.06.19-.4.24-.77.83.84,1.7,1.67,1.7,1.67a17.5,17.5,0,0,1-.9-3.6c-.3-.16-2.85-3.34-2.61-3a8.34,8.34,0,0,1,.3,2.06h0a6,6,0,0,1-.83.08c-.35,0-.14,1.51.29,2.16A4.88,4.88,0,0,0,51.94,15.18Z"/></g></svg>